<?xml version="1.0" encoding="UTF-8"?>
<svg version="1.1" xmlns="http://www.w3.org/2000/svg" width="413" height="320">
<path d="M0 0 C136.29 0 272.58 0 413 0 C413 105.6 413 211.2 413 320 C276.71 320 140.42 320 0 320 C0 214.4 0 108.8 0 0 Z " fill="#FEFEFE" transform="translate(0,0)"/>
<path d="M0 0 C1.98 0 3.96 0 6 0 C6 1.65 6 3.3 6 5 C7.216875 4.979375 8.43375 4.95875 9.6875 4.9375 C12.91977322 4.93175884 15.84934741 5.21233685 19 6 C19 7.32 19 8.64 19 10 C18.01 10 17.02 10 16 10 C16.10169161 12.94727535 16.10169161 12.94727535 17 16 C19.46255685 17.45291273 19.46255685 17.45291273 22 18 C22 20.97 22 23.94 22 27 C23.65 27 25.3 27 27 27 C27 28.98 27 30.96 27 33 C18.13911833 33.29211698 9.73952546 32.44796872 1 31 C1 27.33333333 1 23.66666667 1 20 C-0.25872256 21.02965595 -0.25872256 21.02965595 -0.0625 23.25 C-0.041875 24.1575 -0.02125 25.065 0 26 C0.03786901 27.66623639 0.04627845 29.33397597 0 31 C-0.495 31.495 -0.495 31.495 -1 32 C9.99225502 33.29690981 20.94722405 34.38052288 32 35 C31.82263563 38.90201615 31.43654779 40.56417259 28.6328125 43.36328125 C23.60925032 45.62658507 19.30931047 45.39815987 13.875 45.1875 C11.91417102 45.13509192 9.95322798 45.08675382 7.9921875 45.04296875 C7.12964355 45.01227295 6.26709961 44.98157715 5.37841797 44.94995117 C3.08411173 44.99823004 1.19171022 45.34730527 -1 46 C17.75668404 47.74917172 17.75668404 47.74917172 36 44 C30.41251846 50.51872847 23.41310322 52.55558641 15.09765625 53.23828125 C3.02570196 53.53347704 -7.88580199 50.45776629 -18.6328125 45.05078125 C-23.80464467 42.75503397 -29.41376099 42.39389812 -35 43 C-37.97984167 44.33170309 -37.97984167 44.33170309 -40 46 C-39.1646875 45.76410156 -39.1646875 45.76410156 -38.3125 45.5234375 C-28.06593907 43.20411459 -19.87914604 46.39126765 -10.85546875 51.125 C-8.31063842 52.32508841 -5.77178273 52.62202963 -3 53 C-3 53.33 -3 53.66 -3 54 C-5.08304538 54.05418326 -7.16649768 54.09287551 -9.25 54.125 C-10.41015625 54.14820313 -11.5703125 54.17140625 -12.765625 54.1953125 C-15.94710041 54.00319442 -17.26822694 53.43836214 -20 52 C-24.81319156 51.50559362 -29.47481613 51.47085457 -34.0625 53.0625 C-38.45911743 54.46567578 -42.52131946 53.9548456 -47 53 C-47.825 52.484375 -48.65 51.96875 -49.5 51.4375 C-53.44752507 49.16767308 -57.54761661 49.76657407 -62 50 C-61.67 49.01 -61.34 48.02 -61 47 C-58.11584117 45.55792059 -55.58278472 45.90605113 -52.375 45.9375 C-51.18648437 45.94652344 -49.99796875 45.95554688 -48.7734375 45.96484375 C-47.85820313 45.97644531 -46.94296875 45.98804688 -46 46 C-46.28256092 44.06115111 -46.5763793 42.12394039 -46.875 40.1875 C-47.03742187 39.10855469 -47.19984375 38.02960938 -47.3671875 36.91796875 C-47.85132338 33.82678207 -47.85132338 33.82678207 -50 31 C-49.67 33.64 -49.34 36.28 -49 39 C-50.6945704 37.35526991 -52.35622201 35.69474785 -54 34 C-54.55042969 33.43410156 -55.10085937 32.86820313 -55.66796875 32.28515625 C-59.82419915 27.77352372 -59.82419915 27.77352372 -60.625 24.25 C-60 22 -60 22 -58.5625 20.1875 C-54.66280981 18.3803265 -51.2730991 18.81148092 -47 19 C-47 15.04 -47 11.08 -47 7 C-20.01203388 1.87570264 -20.01203388 1.87570264 -8 8 C-7.34 8 -6.68 8 -6 8 C-6 7.01 -6 6.02 -6 5 C-4.02 5 -2.04 5 0 5 C0 3.35 0 1.7 0 0 Z M-43 15 C-39 16 -39 16 -39 16 Z " fill="#1546A7" transform="translate(94,135)"/>
<path d="M0 0 C1.98 0 3.96 0 6 0 C6 1.65 6 3.3 6 5 C7.216875 4.979375 8.43375 4.95875 9.6875 4.9375 C12.91977322 4.93175884 15.84934741 5.21233685 19 6 C19 7.32 19 8.64 19 10 C18.01 10 17.02 10 16 10 C16.10169161 12.94727535 16.10169161 12.94727535 17 16 C19.46255685 17.45291273 19.46255685 17.45291273 22 18 C22 20.97 22 23.94 22 27 C23.65 27 25.3 27 27 27 C27 28.98 27 30.96 27 33 C18.13911833 33.29211698 9.73952546 32.44796872 1 31 C1 27.33333333 1 23.66666667 1 20 C-0.25949049 21.03406673 -0.25949049 21.03406673 -0.09765625 23.28515625 C-0.08605469 24.20167969 -0.07445312 25.11820313 -0.0625 26.0625 C-0.05347656 26.98160156 -0.04445312 27.90070313 -0.03515625 28.84765625 C-0.02355469 29.55792969 -0.01195312 30.26820313 0 31 C-4.00935005 32.08456919 -7.87290974 32.71756211 -12 32 C-13.00546875 31.23558594 -14.0109375 30.47117188 -15.046875 29.68359375 C-19.69965885 26.17765353 -24.85554194 25.06392297 -30.4375 23.6875 C-31.45521484 23.42388672 -32.47292969 23.16027344 -33.52148438 22.88867188 C-36.01124524 22.24577588 -38.50363782 21.61666565 -41 21 C-40.34 20.67 -39.68 20.34 -39 20 C-39 19.01 -39 18.02 -39 17 C-41.64 16.67 -44.28 16.34 -47 16 C-47 13.03 -47 10.06 -47 7 C-20.33914689 1.70892511 -20.33914689 1.70892511 -8 8 C-7.34 8 -6.68 8 -6 8 C-6 7.01 -6 6.02 -6 5 C-4.02 5 -2.04 5 0 5 C0 3.35 0 1.7 0 0 Z M-43 15 C-39 16 -39 16 -39 16 Z " fill="#E3E9F6" transform="translate(94,135)"/>
<path d="M0 0 C2.84625 -0.061875 5.6925 -0.12375 8.625 -0.1875 C9.51010254 -0.21481201 10.39520508 -0.24212402 11.30712891 -0.27026367 C16.28219813 -0.32233226 19.7215708 0.17623673 24 3 C26.45802095 6.68703143 26.40285195 9.60174091 26.4375 13.875 C26.48680664 14.93654297 26.48680664 14.93654297 26.53710938 16.01953125 C26.57803173 20.01504073 26.17031151 21.7856179 23.66015625 24.9453125 C20.28126896 27.55514321 17.91843129 28.12708107 13.76953125 28.09765625 C13.04612549 28.09515869 12.32271973 28.09266113 11.57739258 28.09008789 C10.66497803 28.08098389 9.75256348 28.07187988 8.8125 28.0625 C5.904375 28.041875 2.99625 28.02125 0 28 C0 18.76 0 9.52 0 0 Z " fill="#1A4AA9" transform="translate(152,143)"/>
<path d="M0 0 C5.44327495 -0.23573238 9.94116568 1.20281443 14.984375 3.1640625 C15.01125651 4.80980816 15.03071623 6.45567663 15.046875 8.1015625 C15.05847656 9.01808594 15.07007813 9.93460938 15.08203125 10.87890625 C14.984375 13.1640625 14.984375 13.1640625 13.984375 14.1640625 C13.91210998 16.01693752 13.9005628 17.87240128 13.921875 19.7265625 C13.93089844 20.73847656 13.93992188 21.75039062 13.94921875 22.79296875 C13.96082031 23.57542969 13.97242188 24.35789063 13.984375 25.1640625 C13.200625 24.8134375 12.416875 24.4628125 11.609375 24.1015625 C10.743125 23.7921875 9.876875 23.4828125 8.984375 23.1640625 C8.324375 23.4940625 7.664375 23.8240625 6.984375 24.1640625 C4.98420888 23.65739303 3.00734203 23.05745002 1.046875 22.4140625 C-4.9356641 20.49538626 -10.9426232 18.77054795 -17.015625 17.1640625 C-16.355625 16.8340625 -15.695625 16.5040625 -15.015625 16.1640625 C-15.015625 15.1740625 -15.015625 14.1840625 -15.015625 13.1640625 C-17.655625 12.8340625 -20.295625 12.5040625 -23.015625 12.1640625 C-23.015625 9.1940625 -23.015625 6.2240625 -23.015625 3.1640625 C-15.35575896 1.82909431 -7.74992528 0.63080787 0 0 Z M-19.015625 11.1640625 C-15.015625 12.1640625 -15.015625 12.1640625 -15.015625 12.1640625 Z " fill="#C3D1EF" transform="translate(70.015625,138.8359375)"/>
<path d="M0 0 C0.70318359 -0.02384766 1.40636719 -0.04769531 2.13085938 -0.07226562 C5.88221828 -0.06171822 7.92979921 0.47194303 11.0390625 2.59375 C13.5824118 6.32530496 13.70358121 9.26995882 13.5 13.625 C13.49419922 14.33205078 13.48839844 15.03910156 13.48242188 15.76757812 C13.39568363 19.46262748 13.24020516 22.50491396 11.0625 25.5625 C7.46138412 27.96324392 4.78646229 27.89494948 0.625 27.875 C-1.35306641 27.90013672 -1.35306641 27.90013672 -3.37109375 27.92578125 C-7.02902784 27.55317679 -8.43513702 27.18782922 -10.9375 24.5625 C-12.21096955 20.74209134 -12.19983806 17.10785774 -12.25 13.125 C-12.27900391 12.36123047 -12.30800781 11.59746094 -12.33789062 10.81054688 C-12.37816779 7.25066493 -12.29482858 5.14888536 -10.4140625 2.0625 C-6.99060447 -0.01101401 -3.88700519 -0.06023618 0 0 Z " fill="#1949A8" transform="translate(299.9375,143.4375)"/>
<path d="M0 0 C4.33125 -0.12375 4.33125 -0.12375 8.75 -0.25 C9.65331055 -0.28641602 10.55662109 -0.32283203 11.48730469 -0.36035156 C15.20165236 -0.41182442 17.3720598 -0.40326435 20.5546875 1.640625 C22.3839083 4.62670436 22.47084196 6.51483791 22.375 10 C22.35566406 11.546875 22.35566406 11.546875 22.3359375 13.125 C22.01091829 15.90655972 21.42920883 17.62179651 20 20 C20.66 20.78375 21.32 21.5675 22 22.375 C24 25 24 25 24 27 C20.92576817 27.35471906 18.05991472 27.52666346 15 27 C11 22.51219512 11 22.51219512 11 19 C10.34 19 9.68 19 9 19 C9 21.64 9 24.28 9 27 C6.03 27 3.06 27 0 27 C0 18.09 0 9.18 0 0 Z " fill="#1647A7" transform="translate(324,144)"/>
<path d="M0 0 C2.866875 -0.103125 5.73375 -0.20625 8.6875 -0.3125 C10.02880981 -0.38078003 10.02880981 -0.38078003 11.3972168 -0.45043945 C15.65042999 -0.52437105 17.50037151 -0.36144699 21.05078125 2.20703125 C24.03675497 6.48553067 23.76906896 9.97210828 23 15 C21.38727433 18.68623011 20.369675 19.75355 17 22 C14.66800612 22.07905064 12.33167378 22.08798769 10 22 C10 23.65 10 25.3 10 27 C6.7 27 3.4 27 0 27 C0 18.09 0 9.18 0 0 Z " fill="#1B4BA9" transform="translate(255,144)"/>
<path d="M0 0 C6.93 0 13.86 0 21 0 C21 1.98 21 3.96 21 6 C17.04 6 13.08 6 9 6 C9 7.32 9 8.64 9 10 C12.3 10 15.6 10 19 10 C19 12.31 19 14.62 19 17 C15.7 17 12.4 17 9 17 C9 17.99 9 18.98 9 20 C12.96 20 16.92 20 21 20 C21 22.31 21 24.62 21 27 C14.07 27 7.14 27 0 27 C0 18.09 0 9.18 0 0 Z " fill="#1445A7" transform="translate(189,144)"/>
<path d="M0 0 C2.97 0 5.94 0 9 0 C10.32 3.63 11.64 7.26 13 11 C14.66832577 8.49751135 15.62381674 6.58850813 16.625 3.8125 C17.07875 2.554375 17.5325 1.29625 18 0 C20.97 0 23.94 0 27 0 C25.68764148 6.36430174 23.98780585 12.42121028 21.875 18.5625 C21.59785156 19.38041016 21.32070312 20.19832031 21.03515625 21.04101562 C20.36094863 23.02876568 19.68107796 25.01459349 19 27 C15.37 27 11.74 27 8 27 C6.66119846 23.06428207 5.32874853 19.12661092 4 15.1875 C3.6184375 14.06794922 3.236875 12.94839844 2.84375 11.79492188 C2.4828125 10.72177734 2.121875 9.64863281 1.75 8.54296875 C1.41484375 7.55321045 1.0796875 6.56345215 0.734375 5.54370117 C0 3 0 3 0 0 Z " fill="#1748A8" transform="translate(219,144)"/>
<path d="M0 0 C8.25 0 16.5 0 25 0 C25 2.31 25 4.62 25 7 C22.36 7 19.72 7 17 7 C17 13.93 17 20.86 17 28 C14.03 28 11.06 28 8 28 C8 21.4 8 14.8 8 8 C5.36 8 2.72 8 0 8 C0 5.36 0 2.72 0 0 Z " fill="#214FAB" transform="translate(356,143)"/>
<path d="M0 0 C1.98 0 3.96 0 6 0 C6 1.65 6 3.3 6 5 C7.216875 4.979375 8.43375 4.95875 9.6875 4.9375 C12.91977322 4.93175884 15.84934741 5.21233685 19 6 C19 7.32 19 8.64 19 10 C18.01 10 17.02 10 16 10 C16.10169161 12.94727535 16.10169161 12.94727535 17 16 C19.46255685 17.45291273 19.46255685 17.45291273 22 18 C22 20.97 22 23.94 22 27 C23.65 27 25.3 27 27 27 C27 28.98 27 30.96 27 33 C25.083412 33.02712153 23.1667127 33.04645097 21.25 33.0625 C19.64898437 33.07990234 19.64898437 33.07990234 18.015625 33.09765625 C15 33 15 33 11 32 C11 24.41 11 16.82 11 9 C6.15350804 9.03950724 6.15350804 9.03950724 1.30712891 9.09008789 C-3.77777778 9.11111111 -3.77777778 9.11111111 -6 8 C-6 7.01 -6 6.02 -6 5 C-4.02 5 -2.04 5 0 5 C0 3.35 0 1.7 0 0 Z " fill="#1748A8" transform="translate(94,135)"/>
<path d="M0 0 C0.33 0 0.66 0 1 0 C1 2.97 1 5.94 1 9 C3.31 9.33 5.62 9.66 8 10 C8 7.36 8 4.72 8 2 C8.33 2 8.66 2 9 2 C9 8.6 9 15.2 9 22 C4.84865619 23.03783595 1.24958373 23.5224898 -3 23 C-5.5 21.5 -5.5 21.5 -7 20 C-6.505 18.515 -6.505 18.515 -6 17 C-4.35 17.99 -2.7 18.98 -1 20 C-1.33 16.04 -1.66 12.08 -2 8 C-1.34 8 -0.68 8 0 8 C0 5.36 0 2.72 0 0 Z " fill="#D5DFF3" transform="translate(85,144)"/>
<path d="M0 0 C0.66 0.33 1.32 0.66 2 1 C-9.10477247 8.23630665 -18.46397633 10.6834418 -31.8359375 8.546875 C-33.90450248 8.09009409 -35.95544871 7.55445459 -38 7 C-38 6.34 -38 5.68 -38 5 C-37.34 5 -36.68 5 -36 5 C-36 4.34 -36 3.68 -36 3 C-35.19369141 3.01571045 -34.38738281 3.0314209 -33.55664062 3.04760742 C-29.8711663 3.11031976 -26.18580465 3.1491062 -22.5 3.1875 C-21.2315625 3.21263672 -19.963125 3.23777344 -18.65625 3.26367188 C-11.61787822 3.31865915 -6.4288859 2.84774679 0 0 Z " fill="#2351AC" transform="translate(128,179)"/>
<path d="M0 0 C6.27255481 2.46525991 12.22865392 4.52157637 18.859375 5.7578125 C18.529375 6.4178125 18.199375 7.0778125 17.859375 7.7578125 C14.43704528 8.89858907 11.77264283 8.85596367 8.171875 8.8203125 C6.40263672 8.80677734 6.40263672 8.80677734 4.59765625 8.79296875 C3.69402344 8.78136719 2.79039063 8.76976562 1.859375 8.7578125 C2.849375 8.0978125 3.839375 7.4378125 4.859375 6.7578125 C2.7561183 5.77669275 0.65173811 4.79798116 -1.453125 3.8203125 C-2.62488281 3.27503906 -3.79664063 2.72976562 -5.00390625 2.16796875 C-12.43779135 -1.17403937 -20.21322842 -0.95621919 -28.140625 0.7578125 C-19.9329749 -8.01588244 -9.7949185 -3.87410956 0 0 Z " fill="#DDE4F2" transform="translate(80.140625,181.2421875)"/>
<path d="M0 0 C1.98 0 3.96 0 6 0 C8 2 8 2 8.265625 4.3125 C8.26046875 5.199375 8.2553125 6.08625 8.25 7 C8.25515625 7.886875 8.2603125 8.77375 8.265625 9.6875 C8 12 8 12 6 14 C4.02 14 2.04 14 0 14 C0 9.38 0 4.76 0 0 Z " fill="#EEF2F8" transform="translate(161,150)"/>
<path d="M0 0 C0.33 0 0.66 0 1 0 C1.1953125 2.01822917 1.390625 4.03645833 1.5859375 6.0546875 C1.86374749 8.22668245 1.86374749 8.22668245 4 10 C3.01 10 2.02 10 1 10 C1 12.97 1 15.94 1 19 C3.64 19.33 6.28 19.66 9 20 C9 14.39 9 8.78 9 3 C9.33 3 9.66 3 10 3 C10 8.61 10 14.22 10 20 C15.61 20.33 21.22 20.66 27 21 C27 21.33 27 21.66 27 22 C20.33516384 23.07497357 14.23691823 22.91190718 7.5625 22.1875 C6.76924316 22.10516113 5.97598633 22.02282227 5.15869141 21.93798828 C1.43798641 21.49730508 -0.83667735 21.10888177 -4 19 C-2.68 19 -1.36 19 0 19 C0 15.7 0 12.4 0 9 C-0.66 8.67 -1.32 8.34 -2 8 C-1.34 8 -0.68 8 0 8 C0 5.36 0 2.72 0 0 Z " fill="#E4EAF5" transform="translate(94,147)"/>
<path d="M0 0 C2.31 0 4.62 0 7 0 C7.02686553 1.97909398 7.04633375 3.95828971 7.0625 5.9375 C7.07410156 7.03964844 7.08570313 8.14179688 7.09765625 9.27734375 C7 12 7 12 6 13 C3.5 13.125 3.5 13.125 1 13 C0 12 0 12 -0.09765625 9.27734375 C-0.08605469 8.17519531 -0.07445312 7.07304687 -0.0625 5.9375 C-0.05347656 4.83277344 -0.04445313 3.72804687 -0.03515625 2.58984375 C-0.02355469 1.73519531 -0.01195312 0.88054687 0 0 Z " fill="#F1F3F9" transform="translate(297,151)"/>
<path d="M0 0 C4.455 0.99 4.455 0.99 9 2 C9 5.63 9 9.26 9 13 C1.96875 10.1875 1.96875 10.1875 0 8 C-0.34352295 5.24636362 -0.18314496 2.79296058 0 0 Z " fill="#1852C6" transform="translate(75,151)"/>
<path d="M0 0 C3.34373475 0.55728913 6.03312999 1.35173889 9 3 C9 5.64 9 8.28 9 11 C5.87709365 10.51421457 3.00419641 10.0013988 0 9 C0 6.03 0 3.06 0 0 Z " fill="#1852C6" transform="translate(75,140)"/>
<path d="M0 0 C2.31 0.66 4.62 1.32 7 2 C7 4.97 7 7.94 7 11 C4.69 11 2.38 11 0 11 C0 7.37 0 3.74 0 0 Z " fill="#1C55C7" transform="translate(86,154)"/>
<path d="M0 0 C1.75 1.54296875 1.75 1.54296875 3 3 C-6.37877608 3.1598655 -15.65190221 2.66433182 -25 2 C-24 0 -24 0 -22.26171875 -0.6171875 C-15.42579291 -1.77421813 -6.72623342 -1.83570121 0 0 Z " fill="#D8E0F0" transform="translate(117,180)"/>
<path d="M0 0 C2.31 0 4.62 0 7 0 C7 2.97 7 5.94 7 9 C4.69 9 2.38 9 0 9 C0 6.03 0 3.06 0 0 Z " fill="#265CC9" transform="translate(65,140)"/>
<path d="M0 0 C0 2.97 0 5.94 0 9 C-2.31 9 -4.62 9 -7 9 C-7 6.36 -7 3.72 -7 1 C-4.53721199 -0.231394 -2.7204945 -0.07159196 0 0 Z " fill="#2A60CA" transform="translate(55,141)"/>
<path d="M0 0 C2.31 0.66 4.62 1.32 7 2 C7 4.64 7 7.28 7 10 C4.69 9.67 2.38 9.34 0 9 C0 6.03 0 3.06 0 0 Z " fill="#1B54C7" transform="translate(86,144)"/>
<path d="M0 0 C2.31 0.66 4.62 1.32 7 2 C7 4.31 7 6.62 7 9 C4.69 9 2.38 9 0 9 C0 6.03 0 3.06 0 0 Z " fill="#255BC9" transform="translate(95,157)"/>
<path d="M0 0 C2.375 -0.125 2.375 -0.125 5 0 C7 2 7 2 7.25 4.5 C7 7 7 7 5 9 C2.375 9.125 2.375 9.125 0 9 C0 6.03 0 3.06 0 0 Z " fill="#D5DEEF" transform="translate(264,150)"/>
<path d="M0 0 C5.875 1.875 5.875 1.875 7 3 C7.04092937 5.33297433 7.04241723 7.66705225 7 10 C1.125 9.125 1.125 9.125 0 8 C-0.14115161 5.32941149 -0.04247107 2.67567762 0 0 Z " fill="#295ECA" transform="translate(95,147)"/>
<path d="M0 0 C1.98 0 3.96 0 6 0 C6 2.64 6 5.28 6 8 C4.02 8 2.04 8 0 8 C0 5.36 0 2.72 0 0 Z " fill="#124DC5" transform="translate(57,141)"/>
<path d="M0 0 C1.98 0 3.96 0 6 0 C6 2.31 6 4.62 6 7 C4.02 7 2.04 7 0 7 C0 4.69 0 2.38 0 0 Z " fill="#1650C5" transform="translate(66,151)"/>
<path d="M0 0 C2.97 0 5.94 0 9 0 C6 3 3 6 0 9 C0 6.03 0 3.06 0 0 Z " fill="#F6F6F6" transform="translate(0,0)"/>
<path d="M0 0 C1.65 0 3.3 0 5 0 C5.38218767 1.65614657 5.71395102 3.32457024 6 5 C5 6 5 6 2.4375 6.0625 C1.2309375 6.0315625 1.2309375 6.0315625 0 6 C0 4.02 0 2.04 0 0 Z " fill="#EFF2F8" transform="translate(333,151)"/>
<path d="M0 0 C2.97 0 5.94 0 9 0 C9 2.64 9 5.28 9 8 C7.87411986 7.04270084 6.7493285 6.08412105 5.625 5.125 C4.99851562 4.59132813 4.37203125 4.05765625 3.7265625 3.5078125 C2.44163349 2.38567993 1.20628025 1.20628025 0 0 Z " fill="#F5F5F5" transform="translate(404,0)"/>
<path d="M0 0 C0.33 0 0.66 0 1 0 C1 2.31 1 4.62 1 7 C-1.97 7 -4.94 7 -8 7 C-7.236875 6.401875 -6.47375 5.80375 -5.6875 5.1875 C-3.08847816 3.147995 -3.08847816 3.147995 -1.25 1.25 C-0.8375 0.8375 -0.425 0.425 0 0 Z " fill="#F4F4F4" transform="translate(412,313)"/>
<path d="M0 0 C0.33 0 0.66 0 1 0 C1 3.3 1 6.6 1 10 C-2.12889199 10.782223 -4.1400091 11.11433318 -7.25 11.0625 C-9.10625 11.0315625 -9.10625 11.0315625 -11 11 C-11 10.34 -11 9.68 -11 9 C-7.18243176 7.62567543 -3.92744671 8.32024961 0 9 C0 6.03 0 3.06 0 0 Z " fill="#C5D3EF" transform="translate(93,156)"/>
<path d="M0 0 C1.98 0 3.96 0 6 0 C6 1.65 6 3.3 6 5 C4.02 5 2.04 5 0 5 C0 3.35 0 1.7 0 0 Z " fill="#2259C8" transform="translate(57,151)"/>
<path d="M0 0 C2.64 0 5.28 0 8 0 C8 0.99 8 1.98 8 3 C4.94736336 3.98120464 3.05263664 3.98120464 0 3 C0 2.01 0 1.02 0 0 Z " fill="#5981D3" transform="translate(47,152)"/>
<path d="M0 0 C1.98 0 3.96 0 6 0 C6 0.99 6 1.98 6 3 C4.02 3 2.04 3 0 3 C0 2.01 0 1.02 0 0 Z " fill="#335CB1" transform="translate(94,130)"/>
</svg>
