<?xml version="1.0" encoding="UTF-8"?>
<svg version="1.1" xmlns="http://www.w3.org/2000/svg" width="413" height="320">
<path d="M0 0 C136.29 0 272.58 0 413 0 C413 105.6 413 211.2 413 320 C276.71 320 140.42 320 0 320 C0 214.4 0 108.8 0 0 Z " fill="#FDFEFE" transform="translate(0,0)"/>
<path d="M0 0 C5.46026854 1.4206581 10.97273174 2.59125473 16.48730469 3.77978516 C28.36113686 6.36975246 40.14851491 9.24821188 51.92480469 12.24853516 C55.68732439 13.20708184 59.45154124 14.13643061 63.23730469 14.99853516 C63.96087158 15.16659668 64.68443848 15.3346582 65.42993164 15.5078125 C67.23209013 15.92289784 69.03727434 16.32479271 70.84277344 16.72509766 C78.98658019 19.40533785 85.77981008 24.47694366 92.61230469 29.52978516 C94.18235682 30.67988026 95.75265875 31.82963447 97.32324219 32.97900391 C98.00435059 33.48133545 98.68545898 33.98366699 99.38720703 34.5012207 C108.4493087 41.06998878 121.48642734 40.17419818 132.36230469 40.77978516 C141.97618422 41.36814843 151.54048945 42.1210595 161.11230469 43.21728516 C174.34197153 44.72003258 187.59444229 45.86152455 200.86230469 46.96728516 C201.88660583 47.05355164 202.91090698 47.13981812 203.96624756 47.22869873 C214.77461305 48.13652948 225.57566199 49.00362418 236.41226196 49.49441528 C240.75098907 49.70298845 244.95254509 50.16823887 249.23730469 50.84228516 C248.69303801 60.63908528 244.70941594 68.36776433 237.55761719 75.08447266 C229.1661975 81.44160878 220.61139129 83.0224934 210.42480469 83.02978516 C209.56693359 83.04203125 208.7090625 83.05427734 207.82519531 83.06689453 C202.45964096 83.07866971 197.32932522 82.62647726 192.01855469 81.85009766 C184.16810431 80.73528495 176.47040902 80.51013105 168.54980469 80.52978516 C166.58430664 80.50561523 166.58430664 80.50561523 164.57910156 80.48095703 C153.87684073 80.47561925 144.76845701 81.84369807 135.23730469 86.84228516 C136.44338379 86.87201416 136.44338379 86.87201416 137.67382812 86.90234375 C164.80953476 87.60299466 164.80953476 87.60299466 176.54980469 88.77978516 C177.31067383 88.85438965 178.07154297 88.92899414 178.85546875 89.00585938 C182.49824128 89.40436402 185.96768008 89.9972725 189.52246094 90.88916016 C210.26882745 95.68884314 237.23987277 91.52250056 255.51123047 80.46630859 C256.89044773 79.56712978 258.25848889 78.65038945 259.6105957 77.7109375 C260.41581665 77.28095459 260.41581665 77.28095459 261.23730469 76.84228516 C261.89730469 77.17228516 262.55730469 77.50228516 263.23730469 77.84228516 C249.90587709 92.17915562 232.43970531 102.04020983 213.23730469 105.84228516 C212.54507812 105.98891602 211.85285156 106.13554687 211.13964844 106.28662109 C167.64932246 115.33089729 125.87935453 101.49961167 86.08886719 84.86181641 C84.90147949 84.36842773 83.7140918 83.87503906 82.49072266 83.36669922 C80.23724663 82.42636372 77.98841531 81.47477674 75.74560547 80.50927734 C64.13946196 75.64653897 52.6969063 73.2733722 40.11230469 73.40478516 C39.07187012 73.4130835 38.03143555 73.42138184 36.95947266 73.42993164 C24.78962957 73.69814544 15.56807885 76.83120216 6.23730469 84.84228516 C5.57730469 85.83228516 4.91730469 86.82228516 4.23730469 87.84228516 C5.34589844 87.56513672 6.45449219 87.28798828 7.59667969 87.00244141 C11.81022135 85.94905599 16.02376302 84.89567057 20.23730469 83.84228516 C20.85855225 83.66141357 21.4797998 83.48054199 22.11987305 83.29418945 C45.54160712 78.29550045 70.05343333 85.07920076 90.11962891 96.94384766 C106.76408084 106.66596505 126.2516324 110.32252405 145.23730469 111.84228516 C141.51214483 114.32572506 138.58096867 114.16556995 134.26464844 114.17822266 C133.4681337 114.18487946 132.67161896 114.19153625 131.85096741 114.19839478 C130.15546979 114.20853169 128.45993219 114.21321147 126.7644043 114.21289062 C124.23576187 114.21718171 121.70898763 114.25325242 119.18066406 114.29150391 C104.0388005 114.39845712 90.27266285 111.81615912 76.23730469 106.09228516 C59.80462579 100.02930901 46.90955457 102.57255779 30.61230469 108.11572266 C9.66453644 115.12917226 -7.01694061 110.81177688 -26.45019531 101.71728516 C-28.55226224 100.75435485 -30.65622275 99.79553932 -32.76269531 98.84228516 C-33.49617188 98.49681641 -34.22964844 98.15134766 -34.98535156 97.79541016 C-40.05744929 95.72357062 -44.97640579 95.57030615 -50.38769531 95.52978516 C-51.10473633 95.52414551 -51.82177734 95.51850586 -52.56054688 95.51269531 C-57.29647772 95.57716691 -61.26380407 96.36036691 -65.76269531 97.84228516 C-64.36364285 94.62729087 -62.7512995 92.60703829 -60.13769531 90.27978516 C-59.50605469 89.70099609 -58.87441406 89.12220703 -58.22363281 88.52587891 C-50.73513466 83.40279525 -43.62749191 83.40453905 -34.82519531 83.52978516 C-33.69662109 83.5265625 -32.56804687 83.52333984 -31.40527344 83.52001953 C-24.88581775 83.56173798 -19.0646905 84.1648718 -12.76269531 85.84228516 C-11.74464086 64.1614959 -17.41297501 42.30750339 -28.76269531 23.84228516 C-29.42269531 23.18228516 -30.08269531 22.52228516 -30.76269531 21.84228516 C-30.37597656 22.81166016 -29.98925781 23.78103516 -29.59082031 24.77978516 C-25.85301489 34.33529415 -23.05029673 43.84722664 -20.76269531 53.84228516 C-20.46492188 54.90962891 -20.46492188 54.90962891 -20.16113281 55.99853516 C-19.67755442 58.23627047 -19.66656565 60.30546812 -19.70019531 62.59228516 C-19.70921875 63.39150391 -19.71824219 64.19072266 -19.72753906 65.01416016 C-19.73914063 65.61744141 -19.75074219 66.22072266 -19.76269531 66.84228516 C-20.42269531 66.84228516 -21.08269531 66.84228516 -21.76269531 66.84228516 C-23.44349343 64.53998974 -25.01823832 62.22664105 -26.57519531 59.84228516 C-34.63078135 47.84694897 -43.46025282 36.58477747 -53.98120117 26.64599609 C-57.88250127 22.93072804 -60.02201199 20.0300248 -60.32519531 14.59228516 C-60.1879653 9.67622188 -58.3520609 7.14296156 -54.96582031 3.70166016 C-38.25261623 -10.40380995 -19.26873813 -5.21947618 0 0 Z " fill="#1244A6" transform="translate(107.7626953125,144.15771484375)"/>
<path d="M0 0 C6.6 0 13.2 0 20 0 C20 5.61 20 11.22 20 17 C21.72347656 16.97679688 23.44695312 16.95359375 25.22265625 16.9296875 C27.50259982 16.91092253 29.78254809 16.89272311 32.0625 16.875 C33.7630957 16.84986328 33.7630957 16.84986328 35.49804688 16.82421875 C41.47615048 16.789361 46.3437064 17.1145688 52 19 C54.1392357 19.26772017 56.28645969 19.47998605 58.4375 19.625 C60.273125 19.74875 62.10875 19.8725 64 20 C64 24.95 64 29.9 64 35 C60.7 35 57.4 35 54 35 C54.33 41.6 54.66 48.2 55 55 C59.80111465 56.27240895 59.80111465 56.27240895 64.6027832 57.54272461 C67.43123784 58.29463066 70.22275488 59.07425163 73 60 C73 70.23 73 80.46 73 91 C78.445 91.495 78.445 91.495 84 92 C85.98 92.33 87.96 92.66 90 93 C90 99.6 90 106.2 90 113 C79.875 113 79.875 113 75.84741211 112.54101562 C74.93487671 112.43950195 74.02234131 112.33798828 73.08215332 112.23339844 C71.69377258 112.07145996 71.69377258 112.07145996 70.27734375 111.90625 C69.40178833 111.80795898 68.52623291 111.70966797 67.62414551 111.60839844 C64.39464443 111.24438479 61.16612547 110.87169977 57.9375 110.5 C50.698125 109.675 43.45875 108.85 36 108 C36 81.93 36 55.86 36 29 C19.17 29 2.34 29 -15 29 C-15 28.34 -15 27.68 -15 27 C-16.65 27 -18.3 27 -20 27 C-20 23.7 -20 20.4 -20 17 C-13.4 17 -6.8 17 0 17 C0 11.39 0 5.78 0 0 Z " fill="#1244A6" transform="translate(250,76)"/>
<path d="M0 0 C10.125 2.25 10.125 2.25 14.91015625 3.7265625 C15.821604 4.00580566 16.73305176 4.28504883 17.67211914 4.57275391 C18.79094482 4.91999512 19.90977051 5.26723633 21.0625 5.625 C24.671875 6.73875 28.28125 7.8525 32 9 C32 20.88 32 32.76 32 45 C25.25737131 45 25.25737131 45 22.59765625 42.48046875 C21.72657227 41.68866211 21.72657227 41.68866211 20.83789062 40.88085938 C20.25201172 40.32205078 19.66613281 39.76324219 19.0625 39.1875 C12.98035893 33.46907501 8.36812079 30.67362416 0 29 C0 19.43 0 9.86 0 0 Z " fill="#1B54C7" transform="translate(185,129)"/>
<path d="M0 0 C10.125 3.375 10.125 3.375 14.91015625 5.26171875 C15.821604 5.61967529 16.73305176 5.97763184 17.67211914 6.34643555 C18.79094482 6.78898682 19.90977051 7.23153809 21.0625 7.6875 C24.671875 9.110625 28.28125 10.53375 32 12 C32 21.57 32 31.14 32 41 C24.12382445 39.87483206 24.12382445 39.87483206 21.1328125 38.9140625 C20.47410156 38.70523438 19.81539062 38.49640625 19.13671875 38.28125 C18.47285156 38.0646875 17.80898437 37.848125 17.125 37.625 C16.46886719 37.41617188 15.81273437 37.20734375 15.13671875 36.9921875 C10.07553338 35.37418672 5.04110168 33.68036723 0 32 C0 21.44 0 10.88 0 0 Z " fill="#1953C6" transform="translate(185,91)"/>
<path d="M0 0 C7.88386226 1.12626604 7.88386226 1.12626604 11.3671875 2.15625 C12.10710937 2.37410156 12.84703125 2.59195313 13.609375 2.81640625 C14.35703125 3.04199219 15.1046875 3.26757812 15.875 3.5 C16.64585937 3.72558594 17.41671875 3.95117188 18.2109375 4.18359375 C23.86624765 5.86624765 23.86624765 5.86624765 25 7 C25.08783542 9.21855264 25.10694609 11.43988496 25.09765625 13.66015625 C25.0962413 14.32462265 25.09482635 14.98908905 25.09336853 15.6736908 C25.08775518 17.80333899 25.07520054 19.93288339 25.0625 22.0625 C25.05748671 23.50325369 25.05292351 24.94400903 25.04882812 26.38476562 C25.03778145 29.92321102 25.02050792 33.46159539 25 37 C15.96539144 37.48399689 9.50367339 35.78193876 0 34 C0 22.78 0 11.56 0 0 Z " fill="#1751C6" transform="translate(223,141)"/>
<path d="M0 0 C0 10.23 0 20.46 0 31 C-7.92 31 -15.84 31 -24 31 C-24 21.43 -24 11.86 -24 2 C-20.41125 1.67 -16.8225 1.34 -13.125 1 C-11.99465332 0.89558594 -10.86430664 0.79117188 -9.69970703 0.68359375 C-8.36721924 0.56177734 -8.36721924 0.56177734 -7.0078125 0.4375 C-5.64100342 0.31181641 -5.64100342 0.31181641 -4.24658203 0.18359375 C-2 0 -2 0 0 0 Z " fill="#1852C6" transform="translate(178,91)"/>
<path d="M0 0 C6.23770455 1.87131136 12.15207838 3.71975857 18.125 6.1875 C20.39375 7.115625 22.6625 8.04375 25 9 C25 17.91 25 26.82 25 36 C20.08979754 35.29854251 16.89794153 34.77640368 12.5 33.0625 C8.33114954 31.45013578 4.34807779 30.24230794 0 29 C0 19.43 0 9.86 0 0 Z " fill="#1751C6" transform="translate(223,106)"/>
<path d="M0 0 C0 9.24 0 18.48 0 28 C-8.24233784 29.18808473 -15.63105702 30 -24 30 C-24 20.76 -24 11.52 -24 2 C-12 0 -12 0 0 0 Z " fill="#1B55C7" transform="translate(118,98)"/>
<path d="M0 0 C7.875 1.125 7.875 1.125 11.18359375 2.19140625 C11.81579834 2.39193604 12.44800293 2.59246582 13.09936523 2.79907227 C13.87094971 3.05100342 14.64253418 3.30293457 15.4375 3.5625 C19.1809375 4.7690625 19.1809375 4.7690625 23 6 C23 14.58 23 23.16 23 32 C14 32 14 32 0 30 C0 20.1 0 10.2 0 0 Z " fill="#1B54C7" transform="translate(254,150)"/>
<path d="M0 0 C0 9.24 0 18.48 0 28 C-2.51625 28.33 -5.0325 28.66 -7.625 29 C-8.40568848 29.10441406 -9.18637695 29.20882812 -9.99072266 29.31640625 C-10.6254248 29.39761719 -11.26012695 29.47882813 -11.9140625 29.5625 C-12.8723999 29.68818359 -12.8723999 29.68818359 -13.85009766 29.81640625 C-16.55756677 30.04761415 -19.28267667 30 -22 30 C-22 20.43 -22 10.86 -22 1 C-14.68071756 0.43697827 -7.34090518 0 0 0 Z " fill="#1852C6" transform="translate(147,95)"/>
<path d="M0 0 C5.32579324 0.76082761 8.48067938 1.3854967 13.1875 3.4375 C14.19167969 3.86933594 15.19585937 4.30117187 16.23046875 4.74609375 C18.51124941 5.778718 20.76066559 6.8803328 23 8 C23 16.25 23 24.5 23 33 C15.125 31.875 15.125 31.875 11.81640625 30.80859375 C11.18420166 30.60806396 10.55199707 30.40753418 9.90063477 30.20092773 C8.74325806 29.82303101 8.74325806 29.82303101 7.5625 29.4375 C5.066875 28.633125 2.57125 27.82875 0 27 C0 18.09 0 9.18 0 0 Z " fill="#1B54C7" transform="translate(254,118)"/>
<path d="M0 0 C0 8.91 0 17.82 0 27 C-8.38160775 26.16183922 -15.84091787 24.83979303 -24 23 C-24 15.74 -24 8.48 -24 1 C-20.968125 0.835 -17.93625 0.67 -14.8125 0.5 C-13.86608643 0.44779297 -12.91967285 0.39558594 -11.94458008 0.34179688 C-11.18556396 0.30119141 -10.42654785 0.26058594 -9.64453125 0.21875 C-8.87471924 0.17685547 -8.10490723 0.13496094 -7.31176758 0.09179688 C-4.87623902 -0.00491437 -2.43744793 0 0 0 Z " fill="#1852C6" transform="translate(178,128)"/>
<path d="M0 0 C0 6.27 0 12.54 0 19 C-7.41484543 17.90728594 -14.7082916 16.73023589 -22 15 C-22 10.38 -22 5.76 -22 1 C-19.08340625 0.83196579 -16.16673658 0.66552033 -13.25 0.5 C-12.0125 0.42845703 -12.0125 0.42845703 -10.75 0.35546875 C-9.55117187 0.28779297 -9.55117187 0.28779297 -8.328125 0.21875 C-7.5949707 0.17685547 -6.86181641 0.13496094 -6.10644531 0.09179688 C-4.07266386 0.00316662 -2.03571175 0 0 0 Z " fill="#1852C6" transform="translate(147,130)"/>
<path d="M0 0 C0 3.63 0 7.26 0 11 C-8.13709505 10.28621973 -16.01731928 8.67226118 -24 7 C-24 5.02 -24 3.04 -24 1 C-21.50018262 0.8301095 -19.00020399 0.66402047 -16.5 0.5 C-15.80390625 0.45230469 -15.1078125 0.40460938 -14.390625 0.35546875 C-9.58304475 0.04386633 -4.81771254 -0.04340282 0 0 Z " fill="#235AC9" transform="translate(118,132)"/>
<path d="M0 0 C6.6 0 13.2 0 20 0 C20 2.97 20 5.94 20 9 C13.4 9 6.8 9 0 9 C0 6.03 0 3.06 0 0 Z " fill="#1445A7" transform="translate(250,61)"/>
<path d="M0 0 C0.66 0 1.32 0 2 0 C2 9.57 2 19.14 2 29 C0.68 29 -0.64 29 -2 29 C-2 28.34 -2 27.68 -2 27 C-1.34 27 -0.68 27 0 27 C0 18.09 0 9.18 0 0 Z " fill="#3C6DCE" transform="translate(215,103)"/>
<path d="M0 0 C0 6.27 0 12.54 0 19 C-1.32 18.67 -2.64 18.34 -4 18 C-3.34 17.67 -2.68 17.34 -2 17 C-2 12.05 -2 7.1 -2 2 C-4.31 2 -6.62 2 -9 2 C-9 1.67 -9 1.34 -9 1 C-5.846632 0.29925156 -3.27275026 0 0 0 Z " fill="#2259C8" transform="translate(147,130)"/>
<path d="M0 0 C1.86785156 0.15275391 1.86785156 0.15275391 3.7734375 0.30859375 C5.18496094 0.43427734 5.18496094 0.43427734 6.625 0.5625 C2.94577133 3.01531911 1.00240649 2.83073919 -3.375 2.8125 C-4.6125 2.81765625 -5.85 2.8228125 -7.125 2.828125 C-10.375 2.5625 -10.375 2.5625 -13.375 0.5625 C-8.75534912 -0.39696595 -4.69370875 -0.39852244 0 0 Z " fill="#2955AE" transform="translate(246.375,255.4375)"/>
<path d="M0 0 C2.97 0 5.94 0 9 0 C6 3 3 6 0 9 C0 6.03 0 3.06 0 0 Z " fill="#F6F6F6" transform="translate(0,0)"/>
<path d="M0 0 C2.97 0 5.94 0 9 0 C9 2.64 9 5.28 9 8 C7.87411986 7.04270084 6.7493285 6.08412105 5.625 5.125 C4.99851562 4.59132813 4.37203125 4.05765625 3.7265625 3.5078125 C2.44163349 2.38567993 1.20628025 1.20628025 0 0 Z " fill="#F5F5F5" transform="translate(404,0)"/>
<path d="M0 0 C0.33 0 0.66 0 1 0 C1 2.31 1 4.62 1 7 C-1.97 7 -4.94 7 -8 7 C-7.236875 6.401875 -6.47375 5.80375 -5.6875 5.1875 C-3.08847816 3.147995 -3.08847816 3.147995 -1.25 1.25 C-0.8375 0.8375 -0.425 0.425 0 0 Z " fill="#F4F4F4" transform="translate(412,313)"/>
<path d="M0 0 C0.66 0.33 1.32 0.66 2 1 C-0.64 3.64 -3.28 6.28 -6 9 C-6.66 7.68 -7.32 6.36 -8 5 C-6.71475739 4.13619741 -5.42157581 3.28419631 -4.125 2.4375 C-3.04605469 1.72400391 -3.04605469 1.72400391 -1.9453125 0.99609375 C-1.30335938 0.66738281 -0.66140625 0.33867187 0 0 Z " fill="#3B63B4" transform="translate(369,221)"/>
<path d="M0 0 C1.093125 0.226875 2.18625 0.45375 3.3125 0.6875 C2.3225 1.1825 2.3225 1.1825 1.3125 1.6875 C1.3125 2.3475 1.3125 3.0075 1.3125 3.6875 C-1.3275 3.3575 -3.9675 3.0275 -6.6875 2.6875 C-4.58035839 -0.41123767 -3.86755884 -0.32775922 0 0 Z " fill="#CFD9EE" transform="translate(100.6875,139.3125)"/>
</svg>
